name C:/MyDriveSym/Projects/mobilecap/Data\Session20210910_0002\mocap\ForceDataProcessed\walkingTS1_forces.mot
datacolumns 19
datarows 19
range 0.40700000 0.41600000
endheader 
time	R_ground_force_vx	R_ground_force_vy	R_ground_force_vz	R_ground_force_px	R_ground_force_py	R_ground_force_pz	R_ground_torque_x	R_ground_torque_y	R_ground_torque_z	L_ground_force_vx	L_ground_force_vy	L_ground_force_vz	L_ground_force_px	L_ground_force_py	L_ground_force_pz	L_ground_torque_x	L_ground_torque_y	L_ground_torque_z	
          0.40700000	        -13.93662200	        783.33773100	        -24.95170600	          0.30040600	          0.00600000	         -0.23135000	          0.00000000	         -1.24472800	          0.00000000	          0.00000000	          0.00000000	          0.00000000	          0.68743400	          0.00000000	         -0.40409700	          0.00000000	          0.00000000	          0.00000000	
          0.40750000	        -13.67114200	        783.74703200	        -25.00192600	          0.30044300	          0.00600000	         -0.23128900	          0.00000000	         -1.23600800	          0.00000000	          0.00000000	          0.00000000	          0.00000000	          0.68743400	          0.00000000	         -0.40409700	          0.00000000	          0.00000000	          0.00000000	
          0.40800000	        -13.40475800	        784.16002400	        -25.05325500	          0.30047900	          0.00600000	         -0.23122800	          0.00000000	         -1.22719200	          0.00000000	          0.00000000	          0.00000000	          0.00000000	          0.68743400	          0.00000000	         -0.40409700	          0.00000000	          0.00000000	          0.00000000	
          0.40850000	        -13.13746800	        784.57670500	        -25.10569500	          0.30051400	          0.00600000	         -0.23116600	          0.00000000	         -1.21828200	          0.00000000	          0.00000000	          0.00000000	          0.00000000	          0.68743400	          0.00000000	         -0.40409700	          0.00000000	          0.00000000	          0.00000000	
          0.40900000	        -12.86926900	        784.99707400	        -25.15925100	          0.30054800	          0.00600000	         -0.23110400	          0.00000000	         -1.20927700	          0.00000000	          0.00000000	          0.00000000	          0.00000000	          0.68743400	          0.00000000	         -0.40409700	          0.00000000	          0.00000000	          0.00000000	
          0.40950000	        -12.60015800	        785.42112700	        -25.21392600	          0.30058200	          0.00600000	         -0.23104200	          0.00000000	         -1.20017800	          0.00000000	          0.00000000	          0.00000000	          0.00000000	          0.68743400	          0.00000000	         -0.40409700	          0.00000000	          0.00000000	          0.00000000	
          0.41000000	        -12.33013300	        785.84886400	        -25.26972300	          0.30061500	          0.00600000	         -0.23098000	          0.00000000	         -1.19098400	          0.00000000	          0.00000000	          0.00000000	          0.00000000	          0.68743400	          0.00000000	         -0.40409700	          0.00000000	          0.00000000	          0.00000000	
          0.41050000	        -12.05919000	        786.28028100	        -25.32664700	          0.30064800	          0.00600000	         -0.23091800	          0.00000000	         -1.18169700	          0.00000000	          0.00000000	          0.00000000	          0.00000000	          0.68743400	          0.00000000	         -0.40409700	          0.00000000	          0.00000000	          0.00000000	
          0.41100000	        -11.78732800	        786.71537900	        -25.38469900	          0.30068000	          0.00600000	         -0.23085500	          0.00000000	         -1.17231500	          0.00000000	          0.00000000	          0.00000000	          0.00000000	          0.68743400	          0.00000000	         -0.40409700	          0.00000000	          0.00000000	          0.00000000	
          0.41150000	        -11.51454400	        787.15415400	        -25.44388500	          0.30071100	          0.00600000	         -0.23079200	          0.00000000	         -1.16284000	          0.00000000	          0.00000000	          0.00000000	          0.00000000	          0.68743400	          0.00000000	         -0.40409700	          0.00000000	          0.00000000	          0.00000000	
          0.41200000	        -11.24083600	        787.59660500	        -25.50420700	          0.30074200	          0.00600000	         -0.23072800	          0.00000000	         -1.15327200	          0.00000000	          0.00000000	          0.00000000	          0.00000000	          0.68743400	          0.00000000	         -0.40409700	          0.00000000	          0.00000000	          0.00000000	
          0.41250000	        -10.96620000	        788.04273200	        -25.56566800	          0.30077200	          0.00600000	         -0.23066500	          0.00000000	         -1.14361000	          0.00000000	          0.00000000	          0.00000000	          0.00000000	          0.68743400	          0.00000000	         -0.40409700	          0.00000000	          0.00000000	          0.00000000	
          0.41300000	        -10.69063600	        788.49253100	        -25.62827100	          0.30080200	          0.00600000	         -0.23060100	          0.00000000	         -1.13385500	          0.00000000	          0.00000000	          0.00000000	          0.00000000	          0.68743400	          0.00000000	         -0.40409700	          0.00000000	          0.00000000	          0.00000000	
          0.41350000	        -10.41414000	        788.94600200	        -25.69202100	          0.30083100	          0.00600000	         -0.23053700	          0.00000000	         -1.12400800	          0.00000000	          0.00000000	          0.00000000	          0.00000000	          0.68743400	          0.00000000	         -0.40409700	          0.00000000	          0.00000000	          0.00000000	
          0.41400000	        -10.13671000	        789.40314400	        -25.75692000	          0.30085900	          0.00600000	         -0.23047200	          0.00000000	         -1.11406800	          0.00000000	          0.00000000	          0.00000000	          0.00000000	          0.68743400	          0.00000000	         -0.40409700	          0.00000000	          0.00000000	          0.00000000	
          0.41450000	         -9.85834500	        789.86395400	        -25.82297100	          0.30088700	          0.00600000	         -0.23040800	          0.00000000	         -1.10403700	          0.00000000	          0.00000000	          0.00000000	          0.00000000	          0.68743400	          0.00000000	         -0.40409700	          0.00000000	          0.00000000	          0.00000000	
          0.41500000	         -9.57904300	        790.32843200	        -25.89017700	          0.30091400	          0.00600000	         -0.23034300	          0.00000000	         -1.09391300	          0.00000000	          0.00000000	          0.00000000	          0.00000000	          0.68743400	          0.00000000	         -0.40409700	          0.00000000	          0.00000000	          0.00000000	
          0.41550000	         -9.29880000	        790.79657700	        -25.95854200	          0.30094100	          0.00600000	         -0.23027700	          0.00000000	         -1.08369800	          0.00000000	          0.00000000	          0.00000000	          0.00000000	          0.68743400	          0.00000000	         -0.40409700	          0.00000000	          0.00000000	          0.00000000	
          0.41600000	         -9.01761600	        791.26838600	        -26.02806800	          0.30096700	          0.00600000	         -0.23021200	          0.00000000	         -1.07339200	          0.00000000	          0.00000000	          0.00000000	          0.00000000	          0.68743400	          0.00000000	         -0.40409700	          0.00000000	          0.00000000	          0.00000000	
